<svg xmlns="http://www.w3.org/2000/svg" width="780" height="470" font-family="Segoe UI, Helvetica, Arial, sans-serif" viewBox="0 0 780 470"><title>Runtime scaling - Python (netlistx)</title><rect width="780" height="470" fill="#fff"/><defs><marker id="arrow" markerHeight="7" markerWidth="7" orient="auto-start-reverse" refX="9" refY="5" viewBox="0 0 10 10"><path fill="#5d6d7e" d="M0,0 L10,5 L0,10 z"/></marker></defs><text x="390" y="34" fill="#1b2631" font-size="21" font-weight="bold" text-anchor="middle">Odd cycle cover runtime - Python (netlistx)</text><text x="390" y="58" fill="#5d6d7e" font-size="13" font-weight="normal" text-anchor="middle">lower is better</text><line x1="118" x2="735" y1="390" y2="390" stroke="#e8ebed" stroke-linecap="round" stroke-width="1"/><text x="106" y="394" fill="#5d6d7e" font-size="12" font-weight="normal" text-anchor="end">1</text><line x1="118" x2="735" y1="320.5" y2="320.5" stroke="#e8ebed" stroke-linecap="round" stroke-width="1"/><text x="106" y="324.5" fill="#5d6d7e" font-size="12" font-weight="normal" text-anchor="end">10</text><line x1="118" x2="735" y1="251" y2="251" stroke="#e8ebed" stroke-linecap="round" stroke-width="1"/><text x="106" y="255" fill="#5d6d7e" font-size="12" font-weight="normal" text-anchor="end">100</text><line x1="118" x2="735" y1="181.5" y2="181.5" stroke="#e8ebed" stroke-linecap="round" stroke-width="1"/><text x="106" y="185.5" fill="#5d6d7e" font-size="12" font-weight="normal" text-anchor="end">1,000</text><line x1="118" x2="735" y1="112" y2="112" stroke="#e8ebed" stroke-linecap="round" stroke-width="1"/><text x="106" y="116" fill="#5d6d7e" font-size="12" font-weight="normal" text-anchor="end">10,000</text><line x1="118" x2="118" y1="112" y2="390" stroke="#5d6d7e" stroke-linecap="round" stroke-width="1.5"/><line x1="118" x2="735" y1="390" y2="390" stroke="#5d6d7e" stroke-linecap="round" stroke-width="1.5"/><text x="118" y="414" fill="#5d6d7e" font-size="12" font-weight="normal" text-anchor="middle">50</text><text x="323.7" y="414" fill="#5d6d7e" font-size="12" font-weight="normal" text-anchor="middle">100</text><text x="529.3" y="414" fill="#5d6d7e" font-size="12" font-weight="normal" text-anchor="middle">200</text><text x="735" y="414" fill="#5d6d7e" font-size="12" font-weight="normal" text-anchor="middle">400</text><text x="426.5" y="438" fill="#1b2631" font-size="13" font-weight="normal" text-anchor="middle">nodes (n)</text><text x="34" y="251" fill="#1b2631" font-size="13" font-weight="normal" text-anchor="middle" transform="rotate(-90 34.0 251.0)">time (ms, log scale)</text><polyline fill="none" stroke="#c0392b" stroke-linecap="round" stroke-linejoin="round" stroke-width="3" points="118 249 323.7 218.2 529.3 169.2 735 113.5"/><circle cx="118" cy="249" r="5.5" fill="#fff" stroke="#c0392b" stroke-width="3"/><circle cx="323.7" cy="218.2" r="5.5" fill="#fff" stroke="#c0392b" stroke-width="3"/><circle cx="529.3" cy="169.2" r="5.5" fill="#fff" stroke="#c0392b" stroke-width="3"/><circle cx="735" cy="113.5" r="5.5" fill="#fff" stroke="#c0392b" stroke-width="3"/><text x="125" y="269" fill="#c0392b" font-size="11" font-weight="bold" text-anchor="start">107</text><text x="323.7" y="238.2" fill="#c0392b" font-size="11" font-weight="bold" text-anchor="middle">297</text><text x="529.3" y="189.2" fill="#c0392b" font-size="11" font-weight="bold" text-anchor="middle">1,503</text><text x="728" y="133.5" fill="#c0392b" font-size="11" font-weight="bold" text-anchor="end">9,507</text><polyline fill="none" stroke="#1e8449" stroke-linecap="round" stroke-linejoin="round" stroke-width="3" points="118 384.6 323.7 358.3 529.3 317.7 735 274"/><circle cx="118" cy="384.6" r="5.5" fill="#fff" stroke="#1e8449" stroke-width="3"/><circle cx="323.7" cy="358.3" r="5.5" fill="#fff" stroke="#1e8449" stroke-width="3"/><circle cx="529.3" cy="317.7" r="5.5" fill="#fff" stroke="#1e8449" stroke-width="3"/><circle cx="735" cy="274" r="5.5" fill="#fff" stroke="#1e8449" stroke-width="3"/><text x="125" y="371.6" fill="#1e8449" font-size="11" font-weight="bold" text-anchor="start">1.20</text><text x="323.7" y="345.3" fill="#1e8449" font-size="11" font-weight="bold" text-anchor="middle">2.86</text><text x="529.3" y="304.7" fill="#1e8449" font-size="11" font-weight="bold" text-anchor="middle">10.98</text><text x="728" y="261" fill="#1e8449" font-size="11" font-weight="bold" text-anchor="end">46.73</text><line x1="130" x2="162" y1="86" y2="86" stroke="#c0392b" stroke-linecap="round" stroke-width="3"/><text x="170" y="90" fill="#1b2631" font-size="12.5" font-weight="normal" text-anchor="start">before</text><line x1="242" x2="274" y1="86" y2="86" stroke="#1e8449" stroke-linecap="round" stroke-width="3"/><text x="282" y="90" fill="#1b2631" font-size="12.5" font-weight="normal" text-anchor="start">after</text></svg>